<svg width="94" height="105" viewBox="0 0 94 105" fill="none" xmlns="http://www.w3.org/2000/svg">
<path d="M92.9953 30.73C92.9945 28.9724 92.6187 27.4194 91.8585 26.0869C91.1119 24.7759 89.9937 23.6773 88.4938 22.8088C76.1129 15.6699 63.72 8.55285 51.3432 1.4067C48.0064 -0.519653 44.7712 -0.449061 41.4592 1.50495C36.5313 4.41086 11.8587 18.5463 4.5066 22.8048C1.47879 24.5579 0.00545813 27.2404 0.00473038 30.7267C0 45.0834 0.00473038 59.4401 0 73.7968C0 75.5157 0.3606 77.0389 1.08726 78.3514C1.8343 79.7018 2.96813 80.8305 4.50259 81.7187C11.8551 85.9772 36.5309 100.112 41.4578 103.019C44.7712 104.974 48.0064 105.044 51.3443 103.117C63.7215 95.9703 76.1151 88.8532 88.4978 81.7144C90.0322 80.8265 91.1661 79.697 91.9131 78.3478C92.6387 77.0349 93 75.5121 93 73.7928C93 73.7928 93 45.087 92.9953 30.73Z" fill="#A179DC"/>
<path d="M46.6422 52.1217L1.08716 78.3513C1.83419 79.7016 2.96803 80.8304 4.50249 81.7186C11.855 85.977 36.5308 100.111 41.4577 103.018C44.7711 104.974 48.0063 105.043 51.3442 103.117C63.7214 95.9701 76.115 88.8531 88.4977 81.7142C90.0321 80.8264 91.166 79.6969 91.913 78.3477L46.6422 52.1217Z" fill="#280068"/>
<path d="M93.353 30.6431C93.3523 28.8855 92.9764 27.3325 92.2162 26L47 52.0353L92.2708 78.2609C92.9964 76.948 93.357 75.4252 93.3577 73.7059C93.3577 73.7059 93.3577 45.0001 93.353 30.6431Z" fill="#390091"/>
<path d="M46.7424 17.6938C59.5304 17.6938 70.6952 24.6388 76.6755 34.9619L76.6173 34.8626L61.571 43.5257C58.6069 38.5068 53.1728 35.1195 46.9385 35.0496L46.742 35.0485C37.2357 35.0485 29.5289 42.7554 29.5289 52.2616C29.5257 55.2579 30.3085 58.2026 31.7991 60.8018C34.7661 65.9816 40.344 69.4751 46.7424 69.4751C53.1804 69.4751 58.7899 65.9372 61.7417 60.7021L61.67 60.8276L76.6933 69.5308C70.7785 79.7666 59.7665 86.6901 47.1273 86.828L46.7424 86.8302C33.9139 86.8302 22.7175 79.8423 16.7521 69.4646C13.84 64.3983 12.1738 58.525 12.1738 52.2616C12.1738 33.1706 27.6502 17.6935 46.742 17.6935L46.7424 17.6938Z" fill="white"/>
<path d="M73.4637 42.3168V47.2196H78.3665V42.3168H80.8179V47.2196H85.7208V49.6711H80.8179V54.5735H85.7208V57.025H80.8179V61.9278H78.3665V57.025H73.4637V61.9278H71.0122V57.025H66.1097V54.5735H71.0122V49.6711H66.1097V47.2196H71.0122V42.3168H73.4637ZM78.3665 49.6707H73.4637V54.5735H78.3665V49.6707Z" fill="white"/>
</svg>
