<svg width="87" height="99" viewBox="0 0 87 99" fill="none" xmlns="http://www.w3.org/2000/svg">
<path d="M43.4468 98.6673L7.91768 88.804L0 0H87L79.0741 88.7904L43.4468 98.6673V98.6673Z" fill="#264DE4"/>
<path d="M72.2887 83.1365L79.0615 7.26086H43.5V91.1176L72.2887 83.1365V83.1365Z" fill="#2965F1"/>
<path d="M18.151 40.1971L19.127 51.0886H43.5V40.1971H18.151ZM16.1894 18.1526L17.1794 29.0441H43.5V18.1526H16.1894V18.1526ZM43.5 68.4835L43.4523 68.4961L31.3225 65.2208L30.547 56.5345H19.6136L21.1394 73.6357L43.4499 79.8288L43.5 79.8152V68.4835Z" fill="#EBEBEB"/>
<path d="M68.7795 40.1971L70.7455 18.1526H43.4625V29.0441H58.8095L57.8184 40.1971H43.4625V51.0886H56.8741L55.6096 65.214L43.4621 68.4927V79.8237L65.7903 73.6357L65.954 71.7955L68.5138 43.1218L68.7795 40.1971V40.1971Z" fill="white"/>
</svg>
