<svg width="26" height="25" viewBox="0 0 26 25" fill="none" xmlns="http://www.w3.org/2000/svg">
<path d="M13.164 0.0235043C10.1959 0.0236254 7.3246 1.06329 5.064 2.95647C2.8034 4.84965 1.30095 7.47281 0.82549 10.3566C0.350034 13.2404 0.932596 16.1966 2.46894 18.6962C4.00528 21.1959 6.39515 23.076 9.21091 24C9.83591 24.1076 10.0703 23.7385 10.0703 23.4155C10.0703 23.1233 10.0546 22.1544 10.0546 21.124C6.91403 21.693 6.10154 20.3705 5.85154 19.6784C5.57414 19.0053 5.13439 18.4088 4.5703 17.9405C4.1328 17.7098 3.50781 17.1408 4.55466 17.1254C4.95439 17.1681 5.33778 17.305 5.67233 17.5245C6.00688 17.7441 6.28274 18.0397 6.47653 18.3865C6.6475 18.6888 6.87738 18.9549 7.15302 19.1696C7.42865 19.3843 7.74462 19.5433 8.08281 19.6376C8.42101 19.7319 8.77478 19.7596 9.12386 19.7191C9.47295 19.6786 9.81047 19.5707 10.1171 19.4015C10.1712 18.776 10.4544 18.1912 10.914 17.756C8.13278 17.4484 5.22654 16.3872 5.22654 11.6811C5.20898 10.4583 5.6674 9.27526 6.50778 8.37455C6.12564 7.31179 6.17035 6.1455 6.63278 5.11412C6.63278 5.11412 7.67962 4.79114 10.0703 6.37523C12.1156 5.82154 14.2749 5.82154 16.3202 6.37523C18.7108 4.77577 19.7577 5.11412 19.7577 5.11412C20.2202 6.14549 20.2649 7.3118 19.8827 8.37455C20.7256 9.27372 21.1844 10.4578 21.1639 11.6811C21.1639 16.4025 18.2421 17.4484 15.4608 17.756C15.7592 18.0536 15.9889 18.4109 16.1345 18.8036C16.2801 19.1964 16.3381 19.6154 16.3046 20.0321C16.3046 21.6777 16.289 23.0003 16.289 23.4156C16.289 23.7386 16.5233 24.123 17.1483 24C19.9591 23.0685 22.3421 21.184 23.8719 18.6831C25.4017 16.1821 25.9788 13.2274 25.5 10.3464C25.0213 7.46546 23.5179 4.84571 21.2583 2.95483C18.9987 1.06395 16.1299 0.0250236 13.164 0.0235043Z" fill="white"/>
</svg>
