<svg width="87" height="99" viewBox="0 0 87 99" fill="none" xmlns="http://www.w3.org/2000/svg">
<path d="M87 0L79.0741 88.7904L43.4468 98.6673L7.91768 88.804L0 0H87Z" fill="#E44D26"/>
<path d="M43.5 91.1176L72.2887 83.1365L79.0615 7.26089H43.5V91.1176Z" fill="#F16529"/>
<path d="M28.0923 29.0441H43.5V18.1526H16.1894L16.4499 21.0746L19.127 51.0886H43.5V40.1971H29.0878L28.0923 29.0441V29.0441ZM30.5471 56.5345H19.6137L21.1394 73.6357L43.4499 79.8288L43.5 79.8152V68.4835L43.4523 68.4961L31.3226 65.2208L30.5471 56.5345V56.5345Z" fill="#EBEBEB"/>
<path d="M43.4624 51.0886H56.8741L55.6095 65.214L43.4621 68.4927V79.8237L65.7903 73.6357L65.954 71.7955L68.5137 43.1218L68.7794 40.1971H43.4624V51.0886ZM43.4624 29.0175V29.0441H69.7704L69.9887 26.5962L70.4852 21.0746L70.7454 18.1526H43.4624V29.0178V29.0175Z" fill="white"/>
</svg>
