<svg width="93" height="93" viewBox="0 0 93 93" fill="none" xmlns="http://www.w3.org/2000/svg">
<g clip-path="url(#clip0_27_18)">
<path d="M16.4688 7.49594e-06H76.5312C78.6945 -0.00208369 80.837 0.433388 82.836 1.2815C84.835 2.12961 86.6513 3.37372 88.181 4.94261C89.7106 6.5115 90.9236 8.37439 91.7505 10.4246C92.5775 12.4749 93.002 14.6723 93 16.891V76.109C93.002 78.3277 92.5775 80.5251 91.7505 82.5754C90.9236 84.6256 89.7106 86.4885 88.181 88.0574C86.6513 89.6263 84.835 90.8704 82.836 91.7185C80.837 92.5666 78.6945 93.0021 76.5312 93H16.4688C14.3055 93.0021 12.163 92.5666 10.164 91.7185C8.16503 90.8704 6.34872 89.6263 4.81904 88.0574C3.28937 86.4885 2.07637 84.6256 1.24946 82.5754C0.422554 80.5251 -0.0020316 78.3277 7.30854e-06 76.109V16.891C-0.0020316 14.6723 0.422554 12.4749 1.24946 10.4246C2.07637 8.37439 3.28937 6.5115 4.81904 4.94261C6.34872 3.37372 8.16503 2.12961 10.164 1.2815C12.163 0.433388 14.3055 -0.00208369 16.4688 7.49594e-06V7.49594e-06Z" fill="#F7DF1E"/>
<path d="M62.6304 72.7688C64.5036 75.8275 66.9408 78.0757 71.2513 78.0757C74.8724 78.0757 77.1856 76.2659 77.1856 73.7652C77.1856 70.7686 74.8089 69.7072 70.8232 67.9638L68.6384 67.0264C62.3322 64.3398 58.1427 60.974 58.1427 53.8588C58.1427 47.3045 63.1367 42.315 70.9413 42.315C76.4977 42.315 80.4923 44.2488 83.3708 49.3121L76.5656 53.6817C75.0673 50.995 73.4508 49.9366 70.9413 49.9366C68.3816 49.9366 66.7593 51.5604 66.7593 53.6817C66.7593 56.3034 68.3831 57.3648 72.1326 58.9886L74.3174 59.9245C81.7426 63.1086 85.935 66.3548 85.935 73.653C85.935 81.5211 79.7542 85.8316 71.4535 85.8316C63.3374 85.8316 58.094 81.964 55.5284 76.8948L62.6304 72.7688ZM31.7588 73.5261C33.1316 75.9618 34.3805 78.0211 37.3831 78.0211C40.2543 78.0211 42.0655 76.8977 42.0655 72.5297V42.814H50.8046V72.6478C50.8046 81.6968 45.4992 85.8154 37.7551 85.8154C30.7579 85.8154 26.7058 82.1943 24.645 77.8329L31.7588 73.5261Z" fill="black"/>
</g>
<defs>
<clipPath id="clip0_27_18">
<rect width="93" height="93" fill="white"/>
</clipPath>
</defs>
</svg>
