<svg width="21" height="20" viewBox="0 0 21 20" fill="none" xmlns="http://www.w3.org/2000/svg">
<path d="M0 2.32323C0 1.64982 0.235697 1.09426 0.707071 0.656566C1.17844 0.218848 1.79125 0 2.54545 0C3.2862 0 3.88552 0.215475 4.34343 0.646465C4.81481 1.09091 5.05051 1.67002 5.05051 2.38384C5.05051 3.0303 4.82156 3.56901 4.36364 4C3.89226 4.44444 3.27273 4.66667 2.50505 4.66667H2.48485C1.7441 4.66667 1.14479 4.44444 0.686869 4C0.22895 3.55556 0 2.99663 0 2.32323ZM0.262626 20V6.50505H4.74747V20H0.262626ZM7.23232 20H11.7172V12.4646C11.7172 11.9933 11.7711 11.6296 11.8788 11.3737C12.0673 10.9158 12.3535 10.5286 12.7374 10.2121C13.1212 9.89562 13.6027 9.73737 14.1818 9.73737C15.6902 9.73737 16.4444 10.7542 16.4444 12.7879V20H20.9293V12.2626C20.9293 10.2694 20.4579 8.75758 19.5152 7.72727C18.5724 6.69697 17.3266 6.18182 15.7778 6.18182C14.0404 6.18182 12.6869 6.92929 11.7172 8.42424V8.46465H11.697L11.7172 8.42424V6.50505H7.23232C7.25925 6.93602 7.27273 8.27608 7.27273 10.5253C7.27273 12.7744 7.25925 15.9326 7.23232 20Z" fill="white"/>
</svg>
