<svg width="50" height="42" viewBox="0 0 50 42" fill="none" xmlns="http://www.w3.org/2000/svg">
<rect x="0.5" y="0.5" width="49" height="40.6667" rx="11.5" stroke="white"/>
<path d="M8.0753 10.0001C7.89125 9.99754 7.70853 10.0315 7.53774 10.1002C7.36695 10.1688 7.2115 10.2707 7.08043 10.3999C6.94936 10.5291 6.84529 10.6831 6.77425 10.8529C6.70321 11.0227 6.66663 11.205 6.66663 11.389C6.66663 11.5731 6.70321 11.7553 6.77425 11.9251C6.84529 12.0949 6.94936 12.2489 7.08043 12.3781C7.2115 12.5074 7.36695 12.6093 7.53774 12.6779C7.70853 12.7465 7.89125 12.7805 8.0753 12.7779H41.4086C41.5927 12.7805 41.7754 12.7465 41.9462 12.6779C42.117 12.6093 42.2724 12.5074 42.4035 12.3781C42.5346 12.2489 42.6386 12.0949 42.7097 11.9251C42.7807 11.7553 42.8173 11.5731 42.8173 11.389C42.8173 11.205 42.7807 11.0227 42.7097 10.8529C42.6386 10.6831 42.5346 10.5291 42.4035 10.3999C42.2724 10.2707 42.117 10.1688 41.9462 10.1002C41.7754 10.0315 41.5927 9.99754 41.4086 10.0001H8.0753ZM8.0753 19.7224C7.89125 19.7198 7.70853 19.7538 7.53774 19.8224C7.36695 19.891 7.2115 19.9929 7.08043 20.1221C6.94936 20.2514 6.84529 20.4054 6.77425 20.5752C6.70321 20.745 6.66663 20.9272 6.66663 21.1113C6.66663 21.2953 6.70321 21.4775 6.77425 21.6473C6.84529 21.8171 6.94936 21.9711 7.08043 22.1004C7.2115 22.2296 7.36695 22.3315 7.53774 22.4001C7.70853 22.4687 7.89125 22.5027 8.0753 22.5001H41.4086C41.5927 22.5027 41.7754 22.4687 41.9462 22.4001C42.117 22.3315 42.2724 22.2296 42.4035 22.1004C42.5346 21.9711 42.6386 21.8171 42.7097 21.6473C42.7807 21.4775 42.8173 21.2953 42.8173 21.1113C42.8173 20.9272 42.7807 20.745 42.7097 20.5752C42.6386 20.4054 42.5346 20.2514 42.4035 20.1221C42.2724 19.9929 42.117 19.891 41.9462 19.8224C41.7754 19.7538 41.5927 19.7198 41.4086 19.7224H8.0753ZM8.0753 29.4446C7.89125 29.442 7.70853 29.476 7.53774 29.5446C7.36695 29.6132 7.2115 29.7151 7.08043 29.8444C6.94936 29.9736 6.84529 30.1276 6.77425 30.2974C6.70321 30.4672 6.66663 30.6494 6.66663 30.8335C6.66663 31.0175 6.70321 31.1998 6.77425 31.3696C6.84529 31.5394 6.94936 31.6934 7.08043 31.8226C7.2115 31.9518 7.36695 32.0537 7.53774 32.1223C7.70853 32.191 7.89125 32.225 8.0753 32.2224H41.4086C41.5927 32.225 41.7754 32.191 41.9462 32.1223C42.117 32.0537 42.2724 31.9518 42.4035 31.8226C42.5346 31.6934 42.6386 31.5394 42.7097 31.3696C42.7807 31.1998 42.8173 31.0175 42.8173 30.8335C42.8173 30.6494 42.7807 30.4672 42.7097 30.2974C42.6386 30.1276 42.5346 29.9736 42.4035 29.8444C42.2724 29.7151 42.117 29.6132 41.9462 29.5446C41.7754 29.476 41.5927 29.442 41.4086 29.4446H8.0753Z" fill="white"/>
</svg>
