<svg width="107" height="56" viewBox="0 0 107 56" fill="none" xmlns="http://www.w3.org/2000/svg">
<path d="M0 27.9999C0 43.4636 23.8314 55.9998 53.2279 55.9998C82.6243 55.9998 106.456 43.4636 106.456 27.9999C106.456 12.5363 82.6243 9.26007e-07 53.2279 9.26007e-07C23.8314 9.26007e-07 0 12.5363 0 27.9999Z" fill="url(#paint0_radial_27_40)"/>
<path d="M53.2279 53.9208C81.4761 53.9208 104.377 42.3156 104.377 27.9998C104.377 13.6842 81.4761 2.07873 53.2279 2.07873C24.9796 2.07873 2.07922 13.6842 2.07922 27.9998C2.07922 42.3156 24.9796 53.9208 53.2279 53.9208Z" fill="#777BB3"/>
<path d="M28.9192 31.2137C31.242 31.2137 32.976 30.7853 34.0732 29.9409C35.1586 29.1052 35.9083 27.6572 36.3012 25.6375C36.6676 23.7497 36.528 22.4315 35.8865 21.7201C35.2306 20.9936 33.8125 20.6251 31.6717 20.6251H27.9597L25.9019 31.2137H28.9192ZM16.7783 44.2569C16.606 44.2569 16.4424 44.1799 16.3329 44.0466C16.2231 43.9136 16.1786 43.7384 16.2116 43.5692L21.6653 15.5092C21.718 15.238 21.9558 15.042 22.2322 15.042H33.9863C37.6804 15.042 40.43 16.045 42.1582 18.0235C43.8957 20.0125 44.4323 22.7926 43.7529 26.2867C43.4764 27.7102 43.0009 29.0322 42.3396 30.2158C41.6775 31.4008 40.8025 32.4972 39.7384 33.4752C38.4647 34.6673 37.0231 35.5317 35.4576 36.0403C33.9168 36.5422 31.9381 36.7967 29.5765 36.7967H24.817L23.4578 43.7894C23.4051 44.0609 23.1675 44.2569 22.891 44.2569H16.7783Z" fill="black"/>
<path d="M28.4358 21.2026H31.6717C34.2555 21.2026 35.1531 21.7695 35.458 22.1074C35.9639 22.6684 36.0594 23.8512 35.7343 25.5279C35.3689 27.405 34.6916 28.7358 33.7209 29.4832C32.7271 30.2483 31.1115 30.636 28.9193 30.636H26.6025L28.4358 21.2026ZM33.9864 14.4644H22.2321C21.6792 14.4644 21.2038 14.8563 21.0983 15.399L15.6446 43.459C15.5788 43.7976 15.6677 44.1478 15.887 44.4141C16.1065 44.6803 16.4334 44.8344 16.7784 44.8344H22.8909C23.444 44.8344 23.9193 44.4424 24.0248 43.8997L25.2932 37.3742H29.5765C31.9988 37.3742 34.038 37.1101 35.6369 36.5893C37.2812 36.0551 38.794 35.1493 40.133 33.8971C41.2403 32.8783 42.1525 31.7347 42.8436 30.4978C43.535 29.2605 44.0317 27.8807 44.3199 26.3967C45.0351 22.7188 44.4541 19.7737 42.5932 17.6436C40.7504 15.534 37.8545 14.4644 33.9864 14.4644ZM25.2011 31.7911H28.9193C31.3837 31.7911 33.2194 31.327 34.4255 30.3984C35.6319 29.4697 36.4454 27.9198 36.8682 25.7477C37.2727 23.6624 37.0885 22.1908 36.3155 21.3335C35.5416 20.4762 33.9939 20.0474 31.6717 20.0474H27.4836L25.2011 31.7911V31.7911ZM33.9864 15.6195C37.5224 15.6195 40.102 16.5474 41.7234 18.4035C43.3446 20.2596 43.8328 22.8503 43.1859 26.1765C42.9197 27.5467 42.4694 28.7994 41.8354 29.9343C41.2007 31.07 40.3719 32.1084 39.3477 33.05C38.1271 34.1922 36.7712 35.0062 35.2792 35.491C33.7871 35.9771 31.8868 36.2191 29.5765 36.2191H24.3408L22.8909 43.6792H16.7784L22.2321 15.6195H33.9864" fill="white"/>
<path d="M57.768 36.7967C57.5955 36.7967 57.4321 36.7197 57.3225 36.5865C57.2126 36.4535 57.1681 36.2785 57.201 36.109L59.6135 23.6936C59.843 22.5129 59.7864 21.6654 59.4543 21.3074C59.251 21.0885 58.6403 20.7213 56.8347 20.7213H52.4641L49.431 36.3293C49.3782 36.6007 49.1404 36.7967 48.864 36.7967H42.7996C42.6271 36.7967 42.4637 36.7197 42.3539 36.5865C42.2442 36.4535 42.1997 36.2783 42.2326 36.109L47.6863 8.0491C47.7391 7.77784 47.9768 7.58185 48.2533 7.58185H54.3177C54.4902 7.58185 54.6536 7.65886 54.7634 7.79189C54.8731 7.92511 54.9176 8.10011 54.8847 8.26953L53.5686 15.042H58.2703C61.8521 15.042 64.281 15.6735 65.6956 16.9726C67.1376 18.2979 67.5875 20.4169 67.033 23.2716L64.4956 36.3293C64.4429 36.6007 64.2053 36.7967 63.9287 36.7967H57.768Z" fill="black"/>
<path d="M54.3177 7.00418H48.2533C47.7002 7.00418 47.2249 7.39615 47.1194 7.93887L41.6657 35.9988C41.5999 36.3375 41.6888 36.6877 41.9083 36.9539C42.1277 37.2202 42.4546 37.3742 42.7996 37.3742H48.864C49.4169 37.3742 49.8925 36.9822 49.998 36.4395L52.9402 21.2988H56.8347C58.6373 21.2988 59.0156 21.6838 59.0308 21.7004C59.1401 21.818 59.284 22.3628 59.0466 23.5834L56.6341 35.9988C56.5683 36.3375 56.6572 36.6877 56.8767 36.9539C57.0962 37.2202 57.4231 37.3742 57.7681 37.3742H63.9287C64.4816 37.3742 64.9571 36.9822 65.0626 36.4395L67.5998 23.3818C68.1953 20.3167 67.6859 18.0175 66.0864 16.5474C64.5601 15.1457 62.0035 14.4643 58.2703 14.4643H54.269L55.4517 8.37974C55.5173 8.0411 55.4286 7.69071 55.2091 7.42465C54.9896 7.15839 54.6627 7.00418 54.3177 7.00418ZM54.3177 8.1593L52.8678 15.6194H58.2703C61.6697 15.6194 64.0144 16.2128 65.3048 17.3979C66.5953 18.5839 66.9819 20.5054 66.4661 23.1616L63.9287 36.2191H57.7681L60.1805 23.8038C60.455 22.3915 60.3542 21.4281 59.8775 20.9145C59.4006 20.4009 58.3862 20.1437 56.8347 20.1437H51.9878L48.864 36.2191H42.7996L48.2533 8.1593H54.3177Z" fill="white"/>
<path d="M76.6286 31.2137C78.9513 31.2137 80.6854 30.7853 81.7825 29.9409C82.8679 29.1054 83.6176 27.6574 84.0107 25.6375C84.3771 23.7497 84.2375 22.4315 83.5959 21.7201C82.9399 20.9936 81.5218 20.6251 79.381 20.6251H75.6691L73.6112 31.2137H76.6286ZM64.4879 44.2569C64.3156 44.2569 64.1519 44.1799 64.0424 44.0466C63.9327 43.9136 63.888 43.7384 63.9209 43.5692L69.3746 15.5092C69.4276 15.238 69.6651 15.042 69.9418 15.042H81.6957C85.39 15.042 88.1393 16.045 89.8678 18.0235C91.6053 20.0123 92.1416 22.7925 91.4624 26.2867C91.1856 27.7102 90.7102 29.0322 90.0489 30.2158C89.3869 31.4008 88.5119 32.4972 87.4478 33.4752C86.1741 34.6673 84.7325 35.5317 83.1669 36.0403C81.6262 36.5422 79.6475 36.7967 77.2858 36.7967H72.5262L71.1676 43.7894C71.1146 44.0609 70.877 44.2569 70.6004 44.2569H64.4879Z" fill="black"/>
<path d="M76.1452 21.2025H79.3811C81.9649 21.2025 82.8624 21.7695 83.1674 22.1073C83.6735 22.6683 83.769 23.8512 83.4436 25.5276C83.0782 27.4049 82.4008 28.7358 81.4303 29.4831C80.4365 30.2482 78.8209 30.636 76.6286 30.636H74.312L76.1452 21.2025ZM81.6958 14.4643H69.9417C69.3887 14.4643 68.9134 14.8563 68.8079 15.399L63.3542 43.4589C63.2884 43.7976 63.3773 44.1478 63.5966 44.414C63.8161 44.6803 64.143 44.8343 64.488 44.8343H70.6005C71.1534 44.8343 71.6289 44.4423 71.7344 43.8996L73.0025 37.3741H77.2859C79.7082 37.3741 81.7474 37.11 83.3462 36.5892C84.9905 36.055 86.5037 35.149 87.8427 33.8967C88.9501 32.878 89.8619 31.7347 90.553 30.4977C91.2444 29.2604 91.7411 27.8806 92.0293 26.3967C92.7445 22.7186 92.1634 19.7734 90.3025 17.6434C88.4597 15.5339 85.5641 14.4643 81.6958 14.4643ZM72.9107 31.7911H76.6286C79.0931 31.7911 80.9288 31.3269 82.1349 30.3984C83.3414 29.4697 84.1548 27.9197 84.5776 25.7477C84.9823 23.6623 84.798 22.1907 84.0249 21.3334C83.2509 20.4761 81.7033 20.0474 79.3811 20.0474H75.193L72.9107 31.7911ZM81.6958 15.6194C85.2318 15.6194 87.8113 16.5474 89.4327 18.4034C91.0541 20.2595 91.5422 22.8503 90.8953 26.1764C90.6291 27.5466 90.1788 28.7993 89.5448 29.9342C88.9101 31.0699 88.0813 32.1083 87.057 33.05C85.8365 34.1922 84.4806 35.0062 82.9885 35.4909C81.4965 35.977 79.5961 36.219 77.2859 36.219H72.0501L70.6005 43.6792H64.488L69.9417 15.6194H81.6958" fill="white"/>
<defs>
<radialGradient id="paint0_radial_27_40" cx="0" cy="0" r="1" gradientUnits="userSpaceOnUse" gradientTransform="translate(31.9583 9.84389) scale(69.8958 69.8958)">
<stop stop-color="#AEB2D5"/>
<stop offset="0.3" stop-color="#AEB2D5"/>
<stop offset="0.75" stop-color="#484C89"/>
<stop offset="1" stop-color="#484C89"/>
</radialGradient>
</defs>
</svg>
