<svg width="93" height="82" viewBox="0 0 93 82" fill="none" xmlns="http://www.w3.org/2000/svg">
<g clip-path="url(#clip0_27_10)">
<path d="M46.5 49.2146C51.078 49.2146 54.7891 45.5368 54.7891 41C54.7891 36.4632 51.078 32.7854 46.5 32.7854C41.922 32.7854 38.2109 36.4632 38.2109 41C38.2109 45.5368 41.922 49.2146 46.5 49.2146Z" fill="#61DAFB"/>
<path fill-rule="evenodd" clip-rule="evenodd" d="M6.81533 35.8743C4.80413 37.6735 3.95923 39.4089 3.95923 41C3.95923 42.5912 4.80413 44.3265 6.81533 46.1257C8.82632 47.9248 11.8451 49.6329 15.7402 51.1068C23.5172 54.0495 34.3919 55.9099 46.5 55.9099C58.6081 55.9099 69.4828 54.0495 77.2598 51.1068C81.1549 49.6329 84.1737 47.9248 86.1846 46.1257C88.1958 44.3265 89.0408 42.5912 89.0408 41C89.0408 39.4089 88.1958 37.6735 86.1846 35.8743C84.1737 34.0752 81.1549 32.3671 77.2598 30.8932C69.4828 27.9505 58.6081 26.0901 46.5 26.0901C34.3919 26.0901 23.5172 27.9505 15.7402 30.8932C11.8451 32.3671 8.82632 34.0752 6.81533 35.8743ZM14.358 27.3056C22.679 24.1571 34.0434 22.2499 46.5 22.2499C58.9566 22.2499 70.321 24.1571 78.642 27.3056C82.7958 28.8774 86.2908 30.7958 88.7812 33.0238C91.2715 35.2515 92.9158 37.9437 92.9158 41C92.9158 44.0563 91.2715 46.7485 88.7812 48.9763C86.2908 51.2042 82.7958 53.1226 78.642 54.6944C70.321 57.8429 58.9566 59.7501 46.5 59.7501C34.0434 59.7501 22.679 57.8429 14.358 54.6944C10.2042 53.1226 6.70923 51.2042 4.21877 48.9763C1.72853 46.7485 0.0842285 44.0563 0.0842285 41C0.0842285 37.9437 1.72853 35.2515 4.21877 33.0238C6.70923 30.7958 10.2042 28.8774 14.358 27.3056Z" fill="#61DAFB"/>
<path fill-rule="evenodd" clip-rule="evenodd" d="M31.1369 4.37809C28.559 3.55161 26.62 3.69415 25.2296 4.48972C23.8391 5.2853 22.7451 6.8781 22.1784 9.50381C21.6117 12.1293 21.6283 15.5741 22.2879 19.6541C23.6049 27.8 27.4165 38.0633 33.4705 48.4549C39.5246 58.8466 46.5876 67.2495 53.0477 72.4527C56.2833 75.0588 59.2854 76.7955 61.863 77.6219C64.4409 78.4484 66.3799 78.3058 67.7703 77.5103C69.1608 76.7147 70.2548 75.1219 70.8215 72.4962C71.3882 69.8707 71.3716 66.4259 70.712 62.3459C69.395 54.2 65.5834 43.9367 59.5294 33.5451C53.4753 23.1534 46.4123 14.7504 39.9522 9.54726C36.7166 6.94121 33.7145 5.20448 31.1369 4.37809ZM42.3962 6.5672C49.3081 12.1343 56.657 20.9342 62.8852 31.625C69.1135 42.3157 73.1291 53.0227 74.5382 61.7384C75.2416 66.0893 75.3126 70.048 74.6108 73.2994C73.9091 76.5505 72.3787 79.3078 69.7078 80.836C67.037 82.3641 63.8622 82.299 60.6703 81.2756C57.4781 80.2522 54.0541 78.2119 50.6037 75.4328C43.6918 69.8657 36.3429 61.0658 30.1147 50.375C23.8864 39.6843 19.8708 28.9773 18.4617 20.2616C17.7583 15.9107 17.6873 11.952 18.3891 8.7006C19.0908 5.44947 20.6212 2.6922 23.2921 1.16404C25.9629 -0.364126 29.1377 -0.298989 32.3296 0.724351C35.5218 1.74778 38.9458 3.78809 42.3962 6.5672Z" fill="#61DAFB"/>
<path fill-rule="evenodd" clip-rule="evenodd" d="M70.8216 9.50381C70.2549 6.8781 69.1608 5.28529 67.7703 4.48972C66.3799 3.69414 64.4409 3.5516 61.863 4.37808C59.2854 5.20447 56.2833 6.9412 53.0477 9.54725C46.5876 14.7504 39.5246 23.1534 33.4705 33.545C27.4165 43.9367 23.6049 54.2 22.288 62.3459C21.6284 66.4258 21.6117 69.8707 22.1784 72.4962C22.7451 75.1219 23.8391 76.7147 25.2296 77.5103C26.6201 78.3058 28.559 78.4484 31.1369 77.6219C33.7145 76.7955 36.7166 75.0588 39.9522 72.4527C46.4123 67.2495 53.4754 58.8466 59.5294 48.4549C65.5835 38.0633 69.3951 27.8 70.712 19.6541C71.3716 15.5741 71.3882 12.1292 70.8216 9.50381ZM74.5382 20.2616C73.1292 28.9772 69.1135 39.6843 62.8853 50.375C56.657 61.0658 49.3081 69.8657 42.3962 75.4328C38.9458 78.2119 35.5218 80.2522 32.3296 81.2756C29.1377 82.299 25.9629 82.3641 23.2921 80.836C20.6212 79.3078 19.0908 76.5505 18.3891 73.2994C17.6873 70.048 17.7584 66.0893 18.4617 61.7384C19.8708 53.0227 23.8864 42.3157 30.1147 31.625C36.343 20.9342 43.6918 12.1343 50.6037 6.56719C54.0542 3.78808 57.4781 1.74777 60.6703 0.724343C63.8622 -0.298996 67.037 -0.364134 69.7078 1.16403C72.3787 2.69219 73.9092 5.44946 74.6109 8.70059C75.3126 11.952 75.2416 15.9107 74.5382 20.2616Z" fill="#61DAFB"/>
</g>
<defs>
<clipPath id="clip0_27_10">
<rect width="93" height="82" fill="white"/>
</clipPath>
</defs>
</svg>
